# xmcd CD database file
#
# Track frame offsets:
#	150
#	23735
#	57982
#	85385
#	109425
#	143887
#	172200
#	199507
#	226125
#	252543
#	276843
#	302588
#	312150
#	331915
#	348525
#
# Disc length: 4773 seconds
#
# Revision: 0
# Processed by: cddbd v1.4PL0 Copyright (c) Steve Scherf et al.
# Submitted via: CDex 1.50beta9
#
DISCID=dc12a30f
DTITLE=Al Jarreau - The Best Of - Disc 1
DYEAR=1994
DGENRE=Jazz
TTITLE0=Mas Que Nada
TTITLE1=Try A Little Tenderness
TTITLE2=Your Song
TTITLE3=My Favourite Things
TTITLE4=She's Leaving Home
TTITLE5=Summertime
TTITLE6=We Got By
TTITLE7=Save Your Love For Me
TTITLE8=Wait For The Magic
TTITLE9=Dinosaur
TTITLE10=Go Away Little Girl
TTITLE11=Ain't No Sunshine
TTITLE12=Lean On Me
TTITLE13=Use Me
TTITLE14=Grandma's Hands
EXTD=YEAR: 1994
EXTT0=
EXTT1=
EXTT2=
EXTT3=
EXTT4=
EXTT5=
EXTT6=
EXTT7=
EXTT8=
EXTT9=
EXTT10=
EXTT11=
EXTT12=
EXTT13=
EXTT14=
PLAYORDER=
